<svg xmlns="http://www.w3.org/2000/svg" viewBox="0 0 100 100" width="200" height="200">
  <circle cx="50" cy="50" r="45" fill="#3b82f6" stroke="#ffffff" stroke-width="3"/>
  <circle cx="50" cy="54" r="35" fill="#ffffff"/>
  <ellipse cx="43" cy="30" rx="7" ry="10" fill="#ffffff" stroke="#000000" stroke-width="2"/>
  <ellipse cx="57" cy="30" rx="7" ry="10" fill="#ffffff" stroke="#000000" stroke-width="2"/>
  <circle cx="45" cy="30" r="2" fill="#000000"/>
  <circle cx="55" cy="30" r="2" fill="#000000"/>
  <circle cx="50" cy="40" r="5" fill="#ef4444" stroke="#000000" stroke-width="1.5"/>
  <circle cx="48" cy="38" r="1.5" fill="#ffffff"/>
  <line x1="50" y1="45" x2="50" y2="70" stroke="#000000" stroke-width="2"/>
  <path d="M 30 58 Q 50 78 70 58" fill="none" stroke="#000000" stroke-width="2"/>
  <line x1="25" y1="42" x2="40" y2="46" stroke="#000000" stroke-width="1.5"/>
  <line x1="22" y1="52" x2="38" y2="52" stroke="#000000" stroke-width="1.5"/>
  <line x1="25" y1="62" x2="40" y2="58" stroke="#000000" stroke-width="1.5"/>
  <line x1="75" y1="42" x2="60" y2="46" stroke="#000000" stroke-width="1.5"/>
  <line x1="78" y1="52" x2="62" y2="52" stroke="#000000" stroke-width="1.5"/>
  <line x1="75" y1="62" x2="60" y2="58" stroke="#000000" stroke-width="1.5"/>
  <path d="M 28 80 Q 50 86 72 80" fill="none" stroke="#ef4444" stroke-width="6" stroke-linecap="round"/>
  <circle cx="50" cy="85" r="7" fill="#facc15" stroke="#000000" stroke-width="1.5"/>
  <circle cx="50" cy="83" r="1.5" fill="#000000"/>
  <line x1="45" y1="87" x2="55" y2="87" stroke="#000000" stroke-width="1"/>
</svg>
