<svg xmlns="http://www.w3.org/2000/svg" viewBox="0 0 100 100" width="200" height="200">
  <g stroke="#f472b6" stroke-width="2.5" fill="#fbcfe8" stroke-linejoin="round">
    <ellipse cx="40" cy="18" rx="4" ry="7" transform="rotate(-10, 40, 18)"/>
    <ellipse cx="50" cy="19" rx="4" ry="7" transform="rotate(10, 50, 19)"/>
    <path d="M 35 35 C 35 25 55 25 60 30 C 65 35 75 35 82 35 C 85 35 88 38 88 43 C 88 48 83 50 78 50 C 70 50 65 65 50 65 C 35 65 30 55 35 35 Z"/>
    <circle cx="45" cy="48" r="6" fill="#f472b6" stroke="none"/>
    <circle cx="54" cy="30" r="3.5" fill="#ffffff" stroke="#f472b6" stroke-width="1.5"/>
    <circle cx="54" cy="30" r="1.5" fill="#000000" stroke="none"/>
    <circle cx="64" cy="31" r="3.5" fill="#ffffff" stroke="#f472b6" stroke-width="1.5"/>
    <circle cx="64" cy="31" r="1.5" fill="#000000" stroke="none"/>
    <circle cx="80" cy="41" r="1.5" fill="#f472b6" stroke="none"/>
    <circle cx="84" cy="41" r="1.5" fill="#f472b6" stroke="none"/>
    <path d="M 52 56 Q 58 60 62 54" fill="none" stroke="#e11d48" stroke-width="2" stroke-linecap="round"/>
  </g>
</svg>
