<svg xmlns="http://www.w3.org/2000/svg" viewBox="0 0 100 100" width="200" height="200">
  <circle cx="50" cy="50" r="45" fill="none" stroke="#e0f2fe" stroke-width="1" stroke-dasharray="2,2"/>
  <g stroke="#38bdf8" stroke-width="3" stroke-linecap="round" fill="none">
    <line x1="50" y1="10" x2="50" y2="90" />
    <line x1="15" y1="30" x2="85" y2="70" />
    <line x1="15" y1="70" x2="85" y2="30" />
    <path d="M 40 20 L 50 10 L 60 20" stroke-width="2"/>
    <path d="M 40 80 L 50 90 L 60 80" stroke-width="2"/>
    <path d="M 20 38 L 15 30 L 25 25" stroke-width="2"/>
    <path d="M 80 62 L 85 70 L 75 75" stroke-width="2"/>
    <path d="M 20 62 L 15 70 L 25 75" stroke-width="2"/>
    <path d="M 80 38 L 85 30 L 75 25" stroke-width="2"/>
    <path d="M 45 35 L 50 30 L 55 35 L 50 40 Z" fill="#e0f2fe" stroke-width="1"/>
    <path d="M 45 65 L 50 60 L 55 65 L 50 70 Z" fill="#e0f2fe" stroke-width="1"/>
  </g>
  <circle cx="50" cy="50" r="6" fill="#e0f2fe" stroke="#38bdf8" stroke-width="2"/>
</svg>
