<svg xmlns="http://www.w3.org/2000/svg" viewBox="0 0 100 100" width="200" height="200">
  <path d="M 50 10 C 65 10 82 15 82 35 C 82 60 62 82 50 90 C 38 82 18 60 18 35 C 18 15 35 10 50 10 Z" fill="#b91c1c" stroke="#eab308" stroke-width="4"/>
  <path d="M 50 16 C 62 16 76 20 76 36 C 76 56 59 76 50 83 C 41 76 24 56 24 36 C 24 20 38 16 50 16 Z" fill="#eab308" stroke="#ffffff" stroke-width="2"/>
  <circle cx="50" cy="58" r="14" fill="#ffffff"/>
  <circle cx="50" cy="38" r="5" fill="#ffffff"/>
  <circle cx="34" cy="45" r="5" fill="#ffffff"/>
  <circle cx="66" cy="45" r="5" fill="#ffffff"/>
  <path d="M 50 49 C 45 49 39 52 40 58 C 41 64 45 68 50 68 C 55 68 59 64 60 58 C 61 52 55 49 50 49 Z" fill="#b91c1c"/>
  <circle cx="50" cy="38" r="3.5" fill="#b91c1c"/>
  <circle cx="35" cy="45" r="3.5" fill="#b91c1c"/>
  <circle cx="65" cy="45" r="3.5" fill="#b91c1c"/>
</svg>
